<?xml version="1.0" standalone="no"?>
<!DOCTYPE svg PUBLIC "-//W3C//DTD SVG 20010904//EN"
 "http://www.w3.org/TR/2001/REC-SVG-20010904/DTD/svg10.dtd">
<svg version="1.0" xmlns="http://www.w3.org/2000/svg"
 width="680.000000pt" height="680.000000pt" viewBox="0 0 680.000000 680.000000"
 preserveAspectRatio="xMidYMid meet">
<metadata>
Created by potrace 1.14, written by Peter Selinger 2001-2017
</metadata>
<g transform="translate(0.000000,680.000000) scale(0.100000,-0.100000)"
fill="#000000" stroke="none">
<path d="M4358 5165 c-2 -2 -35 -6 -73 -10 -136 -12 -134 -10 -121 -120 3 -27
8 -75 12 -105 3 -30 8 -64 10 -75 13 -66 6 -111 -27 -164 -33 -53 -34 -57 -33
-155 4 -379 173 -740 453 -966 24 -19 49 -41 56 -47 8 -7 18 -13 23 -13 5 0
16 -8 25 -18 15 -17 243 -136 292 -153 71 -25 117 -39 165 -53 217 -60 487
-53 697 18 130 44 174 66 303 152 184 122 315 277 396 469 16 38 29 72 30 75
0 3 5 23 12 45 11 39 16 66 27 131 7 40 -12 56 -102 87 l-73 24 -87 -87 c-92
-90 -202 -171 -288 -210 -55 -25 -185 -71 -185 -65 0 2 -23 -3 -51 -10 -68
-18 -310 -12 -399 10 -36 8 -75 18 -86 20 -41 9 -202 81 -214 96 -3 3 -10 8
-16 10 -60 21 -254 223 -369 384 -11 16 -31 43 -45 61 -14 18 -36 50 -50 71
-14 20 -51 64 -83 97 -62 64 -76 84 -83 119 -8 42 -20 134 -29 227 -9 93 -15
124 -28 138 -13 12 -52 24 -59 17z m-4 -171 c4 -35 9 -81 12 -102 l5 -39 -45
-1 c-37 -1 -46 2 -51 19 -4 11 -5 22 -2 25 2 2 -1 36 -8 74 -14 80 -11 85 48
86 l35 0 6 -62z m52 -286 c10 -24 43 -68 74 -99 30 -31 66 -73 80 -93 14 -20
35 -49 47 -64 13 -15 23 -30 23 -33 0 -4 13 -22 30 -40 16 -19 30 -37 30 -41
0 -4 6 -13 13 -20 7 -7 23 -26 35 -43 76 -100 189 -214 280 -282 60 -45 217
-127 252 -131 3 0 18 -6 35 -12 37 -14 145 -37 216 -46 230 -28 482 26 669
143 19 13 40 27 47 33 7 5 15 10 19 10 4 0 24 16 45 35 38 34 59 44 59 27 0
-17 -59 -100 -115 -160 -124 -135 -269 -220 -455 -268 -80 -21 -299 -26 -382
-9 -32 7 -58 10 -58 8 0 -3 -6 0 -14 6 -8 6 -18 11 -22 10 -28 -7 -274 88
-364 141 -233 137 -413 341 -495 563 -19 51 -52 70 -80 47 -17 -14 -20 -62 -5
-88 5 -9 28 -55 51 -102 22 -47 61 -114 86 -150 42 -60 183 -207 243 -255 36
-28 134 -92 140 -91 3 1 19 -9 35 -20 29 -20 70 -41 160 -79 46 -19 217 -73
254 -80 14 -3 35 -7 47 -9 47 -10 124 -17 185 -18 62 -1 188 10 200 18 3 2 21
6 40 9 114 19 315 117 401 196 14 13 37 33 49 45 43 37 109 116 152 181 23 35
43 59 45 53 12 -34 -147 -279 -222 -343 -12 -10 -32 -28 -46 -41 -39 -36 -158
-114 -221 -147 -53 -26 -179 -77 -197 -79 -4 0 -24 -5 -45 -11 -21 -5 -53 -12
-70 -15 -18 -3 -48 -7 -67 -10 -52 -8 -218 -8 -275 0 -199 28 -434 120 -604
237 -139 95 -289 268 -367 422 -36 71 -89 218 -99 276 -3 19 -8 37 -10 41 -6
9 -17 116 -20 194 -2 62 1 73 31 124 19 31 34 63 34 72 0 25 9 30 60 30 46 0
47 -1 66 -42z m2101 -551 c0 -1 -1 -14 -4 -29 -5 -24 -7 -25 -34 -16 -36 13
-44 25 -28 44 8 10 21 13 38 9 14 -4 27 -7 28 -8z"/>
<path d="M1285 2882 c-1 -2 -15 -5 -31 -7 -16 -3 -45 -8 -64 -12 -19 -3 -38
-6 -42 -5 -4 1 -25 -5 -47 -13 -23 -8 -42 -14 -44 -14 -1 0 -15 -4 -30 -10
-16 -6 -30 -11 -33 -11 -7 0 -146 -68 -169 -82 -207 -133 -354 -314 -428 -528
-25 -73 -30 -91 -47 -195 -13 -77 -9 -272 7 -345 8 -36 17 -78 19 -95 10 -56
78 -200 136 -286 159 -239 416 -398 718 -445 66 -10 285 -12 339 -3 25 4 62
10 81 13 82 11 212 57 305 109 185 104 318 237 407 407 32 61 66 143 69 165 1
6 6 21 11 35 11 28 15 47 23 105 4 22 9 54 11 70 6 34 6 141 0 230 -20 289
-196 581 -446 743 -183 118 -381 173 -633 176 -60 0 -110 0 -112 -2z m271
-266 c10 -3 33 -8 49 -10 183 -31 386 -182 486 -361 71 -126 102 -253 101
-410 -4 -394 -297 -714 -688 -751 -96 -9 -83 -9 -174 0 -349 33 -619 269 -684
599 -36 181 -9 398 66 534 54 99 141 199 230 265 85 64 234 124 333 134 27 3
51 7 53 9 5 5 208 -2 228 -9z"/>
<path d="M2930 2860 c-8 -6 -10 -2009 -1 -2011 3 -1 65 -2 137 -3 l132 -1 0
102 c0 56 3 106 7 112 3 6 3 11 -2 11 -7 0 -9 192 -3 225 2 6 1 15 0 20 -2 7
-1 550 1 660 0 6 -1 69 -1 140 -2 157 0 195 7 175 3 -8 11 -22 18 -30 7 -8 23
-35 36 -60 13 -25 26 -47 29 -50 11 -10 160 -263 160 -271 0 -5 5 -9 10 -9 6
0 10 -4 10 -9 0 -5 52 -96 117 -203 64 -106 122 -204 130 -218 7 -14 57 -97
111 -185 l97 -160 69 0 70 0 56 95 c30 52 62 106 71 120 9 14 38 62 65 108 27
46 58 97 68 115 11 18 24 41 30 52 6 11 19 31 27 45 9 14 70 115 135 225 65
110 124 209 131 220 7 11 18 31 25 45 7 14 15 27 18 30 4 3 21 32 40 65 18 33
39 69 46 79 11 16 13 -113 14 -709 0 -400 2 -730 4 -734 3 -5 242 -7 268 -2 3
0 5 453 5 1006 l-2 1005 -90 1 c-112 1 -149 -1 -153 -9 -2 -7 -334 -574 -351
-602 -6 -8 -45 -75 -88 -149 -43 -73 -88 -150 -101 -170 -12 -20 -29 -49 -38
-66 -8 -16 -30 -55 -48 -85 -18 -30 -63 -107 -100 -170 -37 -63 -74 -126 -83
-138 -14 -23 -16 -21 -89 99 -41 67 -74 123 -74 125 0 1 -47 80 -103 176 -57
95 -170 286 -252 423 -81 138 -155 261 -164 275 -33 52 -52 86 -57 103 -4 9
-10 17 -15 17 -5 0 -9 4 -9 10 0 5 -18 39 -40 75 -22 36 -40 70 -40 75 0 6
-10 10 -22 10 -13 1 -65 2 -116 3 -52 1 -97 0 -102 -3z"/>
</g>
</svg>
